<svg width="280" height="280" viewBox="0 0 280 280" fill="none" xmlns="http://www.w3.org/2000/svg">
<rect width="280" height="280" fill="url(#paint0_linear)"/>
<rect x="107.033" y="95.7778" width="8.63853" height="84.1827" fill="#B3C2D3"/>
<path d="M107.033 170.069H115.671V196.797L107.033 199.533V170.069Z" fill="#B3C2D3"/>
<path d="M107.033 171.095L112.075 186.274L100.554 183.722L96.2347 179.96C105.408 179.052 106.899 178.385 107.033 171.095Z" fill="#B3C2D3"/>
<path d="M199.897 158.914L204.164 174.436L192.643 171.884L188.019 167.332C197.192 166.424 199.763 166.204 199.897 158.914Z" fill="#B3C2D3"/>
<path d="M203.91 60.6904C206.34 60.3278 208.536 62.2177 208.536 64.6712L208.536 92.311C208.536 94.2999 207.07 95.9752 205.096 96.2412L111.602 108.842C109.19 109.167 107.033 107.283 107.033 104.853L107.033 78.5669C107.033 76.5995 108.469 74.9355 110.417 74.6447L203.91 60.6904Z" fill="#B3C2D3"/>
<path d="M115.672 194.444C117.527 204.419 108.782 214.317 96.138 216.551C83.494 218.785 71.2163 212.509 69.3604 202.534C67.5045 192.559 76.25 182.661 88.894 180.427C101.538 178.193 113.816 184.469 115.672 194.444Z" fill="#B3C2D3"/>
<rect x="199.897" y="71.1533" width="8.63853" height="96.8101" fill="#B3C2D3"/>
<rect x="199.897" y="157.44" width="8.63853" height="29.4639" fill="#B3C2D3"/>
<ellipse rx="23.2486" ry="18.3717" transform="matrix(0.984747 -0.17399 0.182913 0.983129 185.119 185.861)" fill="#B3C2D3"/>
<path d="M115.672 116.822C116.752 108.404 118.911 107.352 130.789 106.299H115.672V116.822Z" fill="#B3C2D3"/>
<path d="M184.78 98.9347C193.418 97.8824 199.9 98.9347 199.912 110.51L199.897 95.7778L184.78 98.9347Z" fill="#B3C2D3"/>
<defs>
<linearGradient id="paint0_linear" x1="140" y1="0" x2="140" y2="280" gradientUnits="userSpaceOnUse">
<stop stop-color="#E7EDEF"/>
<stop offset="1" stop-color="#DEE6EC"/>
</linearGradient>
</defs>
</svg>
