<?xml version="1.0" encoding="utf-8"?>
<!-- Generator: Adobe Illustrator 25.2.3, SVG Export Plug-In . SVG Version: 6.00 Build 0)  -->
<svg version="1.1"
	 id="svg2" xmlns:cc="http://creativecommons.org/ns#" xmlns:dc="http://purl.org/dc/elements/1.1/" xmlns:inkscape="http://www.inkscape.org/namespaces/inkscape" xmlns:rdf="http://www.w3.org/1999/02/22-rdf-syntax-ns#" xmlns:sodipodi="http://sodipodi.sourceforge.net/DTD/sodipodi-0.dtd" xmlns:svg="http://www.w3.org/2000/svg"
	 xmlns="http://www.w3.org/2000/svg" xmlns:xlink="http://www.w3.org/1999/xlink" x="0px" y="0px" viewBox="0 0 842.3 1000"
	 style="enable-background:new 0 0 842.3 1000;" xml:space="preserve">
<style type="text/css">
	.st0{fill:#B5C0C8;}
</style>
<sodipodi:namedview  bordercolor="#666666" borderopacity="1" gridtolerance="10" guidetolerance="10" id="namedview6" inkscape:current-layer="svg2" inkscape:cx="-621.03745" inkscape:cy="964.94676" inkscape:pageopacity="0" inkscape:pageshadow="2" inkscape:window-height="705" inkscape:window-maximized="1" inkscape:window-width="1366" inkscape:window-x="-8" inkscape:window-y="-8" inkscape:zoom="0.1767767" objecttolerance="10" pagecolor="#ffffff" showgrid="false">
	</sodipodi:namedview>
<path id="path4" inkscape:connector-curvature="0" class="st0" d="M824.7,779.3c-15.1,34.9-33,67.1-53.8,96.7
	c-28.3,40.3-51.4,68.2-69.3,83.7c-27.7,25.4-57.3,38.5-89,39.2c-22.8,0-50.2-6.5-82.2-19.6c-32.1-13.1-61.6-19.6-88.5-19.6
	c-28.3,0-58.6,6.5-91,19.6c-32.5,13.1-58.6,20-78.7,20.7c-30.4,1.3-60.8-12.1-91-40.2c-19.3-16.9-43.5-45.7-72.4-86.7
	c-31.1-43.7-56.6-94.4-76.6-152.2C10.7,658.4,0,598,0,539.5c0-67,14.5-124.8,43.5-173.3c22.8-38.9,53.1-69.6,91.1-92.1
	c38-22.5,79-34,123.1-34.7c24.2,0,55.9,7.5,95.2,22.2c39.3,14.7,64.5,22.2,75.5,22.2c8.3,0,36.3-8.7,83.8-26.2
	c44.9-16.2,82.8-22.9,113.9-20.2c84.1,6.8,147.3,40,189.4,99.7C740.2,382.7,703,446.5,703.7,528.5c0.7,63.8,23.8,116.9,69.3,159.1
	c20.6,19.6,43.6,34.7,69.3,45.4C836.8,749.1,830.9,764.5,824.7,779.3L824.7,779.3z M631.7,20c0,50-18.3,96.7-54.7,139.9
	c-43.9,51.4-97.1,81.1-154.8,76.4c-0.7-6-1.2-12.3-1.2-19c0-48,20.9-99.4,58-141.4c18.5-21.3,42.1-39,70.7-53.1
	C578.3,9,605.3,1.3,630.7,0C631.4,6.7,631.7,13.4,631.7,20L631.7,20z"/>
</svg>
