<svg width="280" height="280" viewBox="0 0 280 280" fill="none" xmlns="http://www.w3.org/2000/svg">
<rect width="280" height="280" fill="url(#paint0_linear)"/>
<path d="M216.575 120.378L199.747 141.414L197.753 144.405C197.424 144.898 197.249 145.477 197.249 146.069V153.591C197.249 155.143 198.507 156.401 200.059 156.401C201.611 156.401 202.869 157.66 202.869 159.212V160.466C202.869 161.442 203.346 162.356 204.14 162.922C215.363 170.91 221.643 176.476 231.399 186.758C231.926 187.313 232.22 188.052 232.22 188.818V192.628C232.22 193.424 232.537 194.187 233.099 194.749L236.962 198.612C237.525 199.175 237.841 199.938 237.841 200.734V209.021C237.841 209.723 237.595 210.403 237.146 210.942L235.618 212.775C235.048 213.459 234.204 213.854 233.313 213.854H142.171C140.515 213.854 139.171 212.511 139.171 210.854V204.747C139.171 204.17 139.345 203.606 139.636 203.107C141.891 199.237 141.247 197.131 144.046 194.836C144.851 194.176 145.417 193.237 145.417 192.196V189.441C145.417 188.325 144.772 187.333 143.865 186.682C141.306 184.842 141.104 182.907 137.074 179.174C136.434 178.581 136.049 177.757 136.049 176.884V175.134C136.049 174.724 136.131 174.316 136.303 173.943C137.493 171.358 138.546 170.243 140.42 169.216C140.826 168.994 141.286 168.891 141.749 168.891H149.979C150.664 168.891 151.399 168.693 151.705 168.082C152.469 166.558 151.343 164.443 151.028 162.195C150.857 160.968 149.57 159.951 149.783 158.731C149.846 158.371 149.904 157.788 149.163 156.401C146.773 153.046 144.301 149.378 135.525 148.611C135.051 148.569 134.587 148.427 134.179 148.182L129.601 145.435C128.93 145.033 128.438 144.386 128.246 143.629C127.933 142.389 127.727 141.328 127.838 140.313C127.979 139.029 128.111 137.338 128.878 136.298C129.543 135.397 130.782 134.6 132.302 134.672C134.98 134.798 135.425 130.609 132.566 127.5C132.395 127.314 132.192 127.161 131.974 127.033L128.164 124.797C127.246 124.259 126.682 123.274 126.682 122.21V117.683C126.682 116.884 126.364 116.115 125.791 115.558C124.789 114.582 123.992 113.846 123.193 113.161C122.014 112.151 121.689 110.428 122.566 109.147C123.725 107.451 124.835 106.035 126.62 104.014C126.661 103.968 126.698 103.928 126.741 103.885C127.477 103.144 134.8 95.7311 134.8 93.9524C134.8 92.1296 142.582 84.4532 150.393 78.2253C150.814 77.8902 151.139 77.4487 151.338 76.9494C153.372 71.8465 154.987 69.3945 159.155 65.2259C163.527 60.8538 169.812 64.0718 176.641 65.2259C183.227 66.6775 186.897 68.1845 193.502 72.7197C204.667 80.482 209.474 86.2227 216.719 96.938C217.053 97.432 217.233 98.0179 217.233 98.6142V118.504C217.233 119.185 217.001 119.846 216.575 120.378Z" fill="#B3C2D3" stroke="#B3C2D3"/>
<path d="M79.1335 213.144L77.3451 214.336C75.9665 215.255 74.1039 214.882 73.1849 213.504L72.8549 213.009C72.5263 212.516 72.351 211.937 72.351 211.345V148.555V144.932C72.351 143.182 70.8594 141.803 69.1149 141.941L50.1847 143.436C49.2048 143.513 48.2492 143.105 47.6267 142.345L46.451 140.908C44.954 139.078 46.063 136.316 48.4097 136.03L90.845 130.855C92.6326 130.637 94.2082 132.032 94.2082 133.833V135.365C94.2082 136.846 93.1278 138.105 91.6643 138.33L86.4019 139.14C86.2 139.171 85.997 139.178 85.793 139.186L85.7759 139.187C84.2234 139.246 80.1375 140.146 80.4395 143.324C80.4543 143.48 80.4694 143.638 80.4694 143.794V210.647C80.4694 211.65 79.9681 212.587 79.1335 213.144Z" fill="#B3C2D3" stroke="#B3C2D3"/>
<circle cx="101.078" cy="131.694" r="9.99184" fill="#B3C2D3"/>
<defs>
<linearGradient id="paint0_linear" x1="140" y1="0" x2="140" y2="280" gradientUnits="userSpaceOnUse">
<stop stop-color="#E7EDEF"/>
<stop offset="1" stop-color="#DEE6EC"/>
</linearGradient>
</defs>
</svg>
