<?xml version="1.0" encoding="utf-8"?><!-- Uploaded to: SVG Repo, www.svgrepo.com, Generator: SVG Repo Mixer Tools -->
<svg fill="#000000" width="800px" height="800px" viewBox="0 0 56 56" xmlns="http://www.w3.org/2000/svg"><path d="M 27.9883 52 C 29.2774 52 29.9336 51.1328 31.2461 49.3516 L 45.2383 30.6719 C 45.8711 29.8047 46.2461 28.9375 46.2461 28 C 46.2461 27.0390 45.8711 26.1953 45.2383 25.3281 L 31.2461 6.6250 C 29.9336 4.8672 29.2774 4.0000 27.9883 4.0000 C 26.7227 4.0000 26.0664 4.8672 24.7539 6.6250 L 10.7617 25.3281 C 10.1289 26.1953 9.7539 27.0390 9.7539 28 C 9.7539 28.9375 10.1289 29.8047 10.7617 30.6719 L 24.7539 49.3516 C 26.0664 51.1328 26.7227 52 27.9883 52 Z"/></svg>