<svg width="189" height="68" viewBox="0 0 189 68" fill="none" xmlns="http://www.w3.org/2000/svg">
<path d="M0 4C0 1.79086 1.79086 0 4 0H184.21C186.419 0 188.21 1.79086 188.21 4V64C188.21 66.2091 186.419 68 184.21 68H4C1.79086 68 0 66.2091 0 64V4Z" fill="#2C2C2C"/>
<rect x="20.3745" y="10.9512" width="13.2434" height="11.7154" rx="2" fill="#6B6B6B"/>
<rect x="20.3745" y="10.9512" width="13.2434" height="11.7154" rx="2" fill="#6B6B6B"/>
<rect x="35.4008" y="10.9512" width="13.2434" height="11.7154" rx="2" fill="#6B6B6B"/>
<rect x="50.427" y="10.9512" width="13.2434" height="11.7154" rx="2" fill="#6B6B6B"/>
<rect x="65.4531" y="10.9512" width="13.2434" height="11.7154" rx="2" fill="#6B6B6B"/>
<rect x="80.4794" y="10.9512" width="13.2434" height="11.7154" rx="2" fill="#6B6B6B"/>
<rect x="95.5056" y="10.9512" width="13.2434" height="11.7154" rx="2" fill="#6B6B6B"/>
<rect x="110.532" y="10.9512" width="13.2434" height="11.7154" rx="2" fill="#6B6B6B"/>
<rect x="125.049" y="10.9512" width="13.2434" height="11.7154" rx="2" fill="#6B6B6B"/>
<rect x="25.7228" y="24.4492" width="13.2434" height="11.7154" rx="2" fill="#6B6B6B"/>
<rect x="40.7491" y="24.4492" width="13.2434" height="11.7154" rx="2" fill="#6B6B6B"/>
<rect x="70.8015" y="24.4492" width="13.2434" height="11.7154" rx="2" fill="#6B6B6B"/>
<rect x="55.7753" y="24.4492" width="13.2434" height="11.7154" rx="2" fill="#6B6B6B"/>
<rect x="85.8278" y="24.4492" width="13.2434" height="11.7154" rx="2" fill="#6B6B6B"/>
<rect x="100.599" y="24.4492" width="13.2434" height="11.7154" rx="2" fill="#6B6B6B"/>
<rect x="115.371" y="24.4492" width="13.2434" height="11.7154" rx="2" fill="#6B6B6B"/>
<rect x="145.423" y="24.4492" width="13.2434" height="11.7154" rx="2" fill="#6B6B6B"/>
<rect x="130.142" y="24.4492" width="13.2434" height="11.7154" rx="2" fill="#6B6B6B"/>
<rect x="32.3446" y="37.9478" width="13.2434" height="11.7154" rx="2" fill="#6B6B6B"/>
<rect x="2.29211" y="10.9512" width="16.2996" height="11.7154" rx="2" fill="#474747"/>
<rect x="2.29211" y="24.4492" width="21.1386" height="11.7154" rx="2" fill="#474747"/>
<rect x="2.29211" y="37.9478" width="28.2697" height="11.7154" rx="2" fill="#474747"/>
<rect x="2.29211" y="51.4453" width="12.7341" height="11.7154" rx="2" fill="#474747"/>
<rect x="17.0637" y="51.4453" width="13.4981" height="11.7154" rx="2" fill="#474747"/>
<rect x="32.3446" y="51.4453" width="13.4981" height="11.7154" rx="2" fill="#474747"/>
<rect x="167.071" y="51.4453" width="18.8464" height="11.7154" rx="2" fill="#474747"/>
<rect x="144.405" y="51.4453" width="20.3745" height="11.7154" rx="2" fill="#474747"/>
<rect x="167.071" y="37.9478" width="18.8464" height="11.7154" rx="2" fill="#474747"/>
<rect x="160.449" y="24.4492" width="25.4682" height="11.7154" rx="2" fill="#474747"/>
<rect x="169.873" y="10.9512" width="16.0449" height="11.7154" rx="2" fill="#474747"/>
<rect x="47.3708" y="51.4453" width="96.015" height="11.7154" rx="2" fill="#6B6B6B"/>
<rect x="47.3708" y="37.9478" width="13.2434" height="11.7154" rx="2" fill="#6B6B6B"/>
<rect x="62.397" y="37.9478" width="13.2434" height="11.7154" rx="2" fill="#6B6B6B"/>
<rect x="77.4232" y="37.9478" width="13.2434" height="11.7154" rx="2" fill="#6B6B6B"/>
<rect x="92.4495" y="37.9478" width="13.2434" height="11.7154" rx="2" fill="#6B6B6B"/>
<rect x="107.476" y="37.9478" width="13.2434" height="11.7154" rx="2" fill="#6B6B6B"/>
<rect x="122.502" y="37.9478" width="13.2434" height="11.7154" rx="2" fill="#6B6B6B"/>
<rect x="137.528" y="37.9478" width="12.7341" height="11.7154" rx="2" fill="#6B6B6B"/>
<rect x="151.79" y="37.9478" width="13.2434" height="11.7154" rx="2" fill="#6B6B6B"/>
<rect x="140.075" y="10.9512" width="13.2434" height="11.7154" rx="2" fill="#6B6B6B"/>
<rect x="155.101" y="10.9512" width="13.2434" height="11.7154" rx="2" fill="#6B6B6B"/>
</svg>
