<svg width="280" height="280" viewBox="0 0 280 280" fill="none" xmlns="http://www.w3.org/2000/svg">
<rect width="280" height="280" fill="url(#paint0_linear)"/>
<rect x="176.033" y="92.248" width="8.63853" height="84.1827" fill="#B3C2D3"/>
<path d="M176.033 166.539H184.671V193.267L176.033 196.003V166.539Z" fill="#B3C2D3"/>
<path d="M176.033 167.565L181.075 182.744L169.554 180.192L165.235 176.43C174.408 175.522 175.899 174.855 176.033 167.565Z" fill="#B3C2D3"/>
<path d="M225.387 64.072C227.809 63.7836 229.94 65.7076 229.895 68.1424L229.403 94.752C229.367 96.695 227.934 98.32 226.009 98.6021L180.735 105.236C178.279 105.596 176.075 103.658 176.121 101.18L176.636 73.3261C176.673 71.3424 178.163 69.6969 180.136 69.4619L225.387 64.072Z" fill="#B3C2D3"/>
<path d="M184.672 190.914C186.527 200.889 177.782 210.787 165.138 213.021C152.494 215.255 140.216 208.979 138.36 199.004C136.505 189.029 145.25 179.131 157.894 176.897C170.538 174.663 182.816 180.939 184.672 190.914Z" fill="#B3C2D3"/>
<path d="M184.672 113.292C185.752 104.874 187.911 103.822 199.789 102.77H184.672V113.292Z" fill="#B3C2D3"/>
<rect x="45" y="84" width="114" height="9" fill="#B3C2D3"/>
<rect x="45" y="108" width="114" height="9" fill="#B3C2D3"/>
<rect x="45" y="132" width="114" height="9" fill="#B3C2D3"/>
<rect x="45" y="156" width="114" height="9" fill="#B3C2D3"/>
<defs>
<linearGradient id="paint0_linear" x1="140" y1="0" x2="140" y2="280" gradientUnits="userSpaceOnUse">
<stop stop-color="#E7EDEF"/>
<stop offset="1" stop-color="#DEE6EC"/>
</linearGradient>
</defs>
</svg>
