<?xml version="1.0" encoding="UTF-8"?>
<!-- Created with Inkscape (http://www.inkscape.org/) -->
<svg width="17.198mm" height="10.583mm" version="1.1" viewBox="0 0 17.198 10.583" xmlns="http://www.w3.org/2000/svg">
 <g transform="translate(-97.962 -83.909)">
  <path d="m98.359 87.481h4.4979a0.26458 0.26458 135 0 0 0.26458-0.26458v-1.0583a0.26458 0.26458 135 0 1 0.26458-0.26458h1.0583a0.26458 0.26458 135 0 0 0.26458-0.26458v-1.3229a0.26458 0.26458 135 0 1 0.26458-0.26458h6.35a0.26458 0.26458 45 0 1 0.26458 0.26458l1e-5 1.3229a0.26458 0.26458 45 0 0 0.26458 0.26458h2.9104a0.26458 0.26458 45 0 1 0.26458 0.26458v1.0583a0.26458 0.26458 135 0 1-0.26458 0.26458h-2.9104a0.26458 0.26458 135 0 0-0.26458 0.26458l1e-5 2.7781a0.26458 0.26458 45 0 0 0.26458 0.26458h2.9104a0.26458 0.26458 45 0 1 0.26458 0.26458v1.1906a0.26458 0.26458 135 0 1-0.26458 0.26458h-2.9104a0.26458 0.26458 135 0 0-0.26458 0.26458v1.3229a0.26458 0.26458 135 0 1-0.26458 0.26458h-6.35a0.26458 0.26458 45 0 1-0.26458-0.26458v-1.3229a0.26458 0.26458 45 0 0-0.26458-0.26458h-1.0583a0.26458 0.26458 45 0 1-0.26458-0.26458v-1.1906a0.26458 0.26458 45 0 0-0.26458-0.26458h-4.4979a0.26458 0.26458 45 0 1-0.26458-0.26458v-2.7781a0.26458 0.26458 135 0 1 0.26458-0.26458z" stroke="#000" stroke-width=".26458px"/>
 </g>
</svg>
