<svg xmlns="http://www.w3.org/2000/svg" shape-rendering="geometricPrecision" text-rendering="geometricPrecision" image-rendering="optimizeQuality" fill-rule="evenodd" clip-rule="evenodd" viewBox="0 0 512 506.33"><path fill="#fff" d="M66.32 425.99l-56.2-96.58c-10.16-17.47-13.9-31.22-5.45-51.4l33.04-55.5-33.1-17.8 110.95-.44L170.92 301l-34.15-19.62-55.45 98.29c-5.25 9.33-9.61 16.4-12.33 27.02-1.63 6.41-2.42 12.84-2.67 19.3zm22.27-298.6L142 34.44c15.02-18.71 33.73-25.46 51.52-20.42 15.34 4.34 19.59 11.23 27.75 23.71C231 52.6 239.53 68.48 248.4 84.07l-59.72 102.62-100.09-59.3zM210.13.38L321.87 0c20.2-.07 33.98 3.57 47.24 20.98l31.54 56.36 31.96-19.77-55.09 96.31-111.45-.42 34.06-19.76-57.4-97.17c-5.44-9.22-9.38-16.53-17.23-24.19-4.73-4.61-9.91-8.51-15.37-11.96zm243.32 173.11l53.78 92.73c8.7 22.37 5.19 41.95-8.07 54.84-11.43 11.1-19.52 11.34-34.41 12.17-17.74.99-35.76.44-53.69.33l-59.01-103.03 101.4-57.04zm49.22 168.77l-55.54 96.95c-10.05 17.53-20.08 27.65-41.79 30.42l-64.58-.86 1.14 37.56-55.86-95.86 56.09-96.31.08 39.38 112.85-1.12c10.7-.11 19.01.13 29.56-2.83 6.37-1.79 12.33-4.33 18.05-7.33zM237.08 467.74l-107.2.22c-23.72-3.65-38.91-16.49-43.45-34.41-3.9-15.45-.06-22.58 6.66-35.89 8.02-15.86 17.5-31.19 26.57-46.66l118.73.41-1.31 116.33z"/></svg>