<svg id="Layer_1" data-name="Layer 1" xmlns="http://www.w3.org/2000/svg" viewBox="0 0 347.68 57.36"><defs><style>.cls-1{fill:#b5c0c8;}</style></defs><g id="ioGsbF"><path class="cls-1" d="M193.12,520.49c-.45.58-.87,1.16-1.32,1.71a26.58,26.58,0,0,1-9.08,7.07,28.09,28.09,0,0,1-5.14,1.84,27.07,27.07,0,0,1-7.92.72,24.56,24.56,0,0,1-4.74-.71,26.51,26.51,0,0,1-4.76-1.64,25.94,25.94,0,0,1-6.08-3.82,26.71,26.71,0,0,1-8.58-13.24,21,21,0,0,1-.79-4.08c0-.47,0-.48-.51-.48h-10c-.3,0-.38.09-.38.38q0,9.33,0,18.65a.55.55,0,0,1-.27.53l-4.87,3.25a1.79,1.79,0,0,1-.28.14V491q0-5.79,0-11.58c0-.28.09-.34.35-.34h22.32l-.87,1.18c-1,1.33-2,2.65-3,4a.55.55,0,0,1-.51.25H134.29c-.47,0-.47,0-.47.47V502c0,.42,0,.42.42.42h10c.3,0,.39-.08.44-.38.15-1,.32-2,.52-3a24.13,24.13,0,0,1,2.08-5.83,27.37,27.37,0,0,1,3.22-5,26.82,26.82,0,0,1,5.57-5.12,22.92,22.92,0,0,1,4.69-2.55c1.29-.49,2.61-.94,3.94-1.31a25.39,25.39,0,0,1,9.51-.64,26.06,26.06,0,0,1,4.1.8,26.65,26.65,0,0,1,5.54,2.23,26.31,26.31,0,0,1,5.08,3.55,27.69,27.69,0,0,1,3.7,4c.13.18.11.26-.06.39-1.32.94-2.63,1.9-3.94,2.86-.16.11-.27.12-.39-.06a21,21,0,0,0-8.47-6.75,21.88,21.88,0,0,0-3.94-1.29,20.79,20.79,0,0,0-9.31,0,22,22,0,0,0-4,1.3,21.1,21.1,0,0,0-7.71,5.81,19.91,19.91,0,0,0-3.45,5.81,29.86,29.86,0,0,0-1,3.46,18.73,18.73,0,0,0-.43,5.83,20.36,20.36,0,0,0,1,5.11,21.36,21.36,0,0,0,11.82,13,21.65,21.65,0,0,0,3.93,1.25,21,21,0,0,0,6.56.4,21.46,21.46,0,0,0,6-1.49,21,21,0,0,0,7.57-5.25c.6-.65,1.13-1.36,1.68-2.06.13-.17.21-.19.38-.07l4,2.77A2,2,0,0,1,193.12,520.49Z" transform="translate(-128.4 -476.5)"/><path class="cls-1" d="M179.2,499.38c-.54-.56-1-1.12-1.57-1.6a9.56,9.56,0,0,0-4-2.11,9.27,9.27,0,0,0-4.41-.08,9.7,9.7,0,0,0-6.95,5.68,9.74,9.74,0,0,0,1.57,10.35,9.7,9.7,0,0,0,4.19,2.84,9.49,9.49,0,0,0,4.67.44,9.66,9.66,0,0,0,6.44-3.87c.13-.17.23-.2.42-.06q2,1.37,3.91,2.72c.23.16.26.27.09.5a15.22,15.22,0,0,1-6.72,5.16,14.73,14.73,0,0,1-6,1,15,15,0,0,1-10.58-4.67,14.77,14.77,0,0,1-3.48-5.76,15.27,15.27,0,0,1,1.6-12.93,15.21,15.21,0,0,1,5.47-5.16,15,15,0,0,1,4.43-1.63,15.4,15.4,0,0,1,5.29-.1,15.22,15.22,0,0,1,9.82,5.86c.12.15.17.25,0,.39l-4.07,3Z" transform="translate(-128.4 -476.5)"/></g><g id="VT5TG2"><path class="cls-1" d="M287.91,479.87v7.95l-2-.26a10.34,10.34,0,0,0-3.19.18,18.16,18.16,0,0,0-2.22.44c-.79.23-1.54.6-2.33.85a12.21,12.21,0,0,0-2.76,1.42,11.88,11.88,0,0,0-1.23,1c-.64.54-1.3,1-1.9,1.63a9.9,9.9,0,0,0-1,1.24,17,17,0,0,0-1.78,2.67,23.15,23.15,0,0,0-1.06,2.39,18.38,18.38,0,0,0-.46,2h14.16c.41,0,.41,0,.41.41V509H268c.13.53.27,1,.35,1.46a12.62,12.62,0,0,0,1.78,4c.39.7,1,1.27,1.43,2a14.3,14.3,0,0,0,2.36,2.43c.19.19.45.31.66.49A10.32,10.32,0,0,0,277,521a17.75,17.75,0,0,0,10.48,1.84c.29,0,.29.13.29.33q0,3.17,0,6.32a6.06,6.06,0,0,0,0,.74c0,.28-.13.38-.35.39-1.45,0-2.91.15-4.36.09a18.57,18.57,0,0,1-4.67-.79c-1.35-.42-2.68-1-4-1.47-.53-.2-1-.52-1.53-.77a5.19,5.19,0,0,1-.59-.24c-.87-.57-1.73-1.16-2.59-1.75a7.4,7.4,0,0,1-.89-.67c-.78-.72-1.55-1.45-2.31-2.2a14.35,14.35,0,0,1-1.16-1.3,20.54,20.54,0,0,1-1.23-1.71c-.68-1.08-1.38-2.16-2-3.29a23.83,23.83,0,0,1-1.08-2.73c-.27-.76-.55-1.53-.75-2.31a19.6,19.6,0,0,1-.41-2.29c-.16-1.25-.29-2.5-.38-3.75a11.83,11.83,0,0,1,.07-1.78,19.53,19.53,0,0,1,.23-2.16c.18-1,.4-1.91.67-2.85s.63-1.93,1-2.88a4.52,4.52,0,0,1,.23-.5c.25-.59.47-1.2.77-1.77a31.79,31.79,0,0,1,2.52-3.88,17.59,17.59,0,0,1,3.17-3.28c1-.8,2-1.58,3.05-2.35a8,8,0,0,1,1.1-.72c.75-.39,1.51-.76,2.28-1.09A31.45,31.45,0,0,1,277.6,481c1.1-.34,2.23-.57,3.36-.83a13.93,13.93,0,0,1,3.41-.31c.72,0,1.45-.06,2.18-.06C287,479.76,287.44,479.83,287.91,479.87Z" transform="translate(-128.4 -476.5)"/><path class="cls-1" d="M244.55,522.81v7.7l-1.35.1a13.31,13.31,0,0,1-1.41.07,27,27,0,0,1-5.74-.7c-1.2-.34-2.36-.79-3.54-1.2-.45-.16-.89-.35-1.33-.54s-.68-.34-1-.5a16.74,16.74,0,0,1-2.88-1.72c-.54-.39-1-.85-1.55-1.27s-1.11-.9-1.63-1.38a11.34,11.34,0,0,1-1.1-1.2c-.71-.88-1.41-1.76-2.09-2.66-.27-.35-.46-.75-.7-1.12a26.77,26.77,0,0,1-1.94-3.95c-.4-.91-.6-1.91-.94-2.85a12.77,12.77,0,0,1-.61-3.12c-.1-.88-.18-1.76-.2-2.65,0-1.09,0-2.19,0-3.28a12,12,0,0,1,.31-2c.28-1.13.55-2.26.93-3.36s.83-2,1.26-3.06a13.91,13.91,0,0,1,.77-1.66,22.54,22.54,0,0,1,2.28-3.3c.48-.57.94-1.17,1.47-1.69.8-.76,1.67-1.46,2.49-2.19a23.89,23.89,0,0,1,3.17-2.2,24.94,24.94,0,0,1,3.05-1.44,15.59,15.59,0,0,1,2.05-.81c1.12-.31,2.26-.56,3.4-.79a26.09,26.09,0,0,1,3.53-.38,22.82,22.82,0,0,1,2.35.12l.93.05c0,.1,0,.18,0,.26,0,2.41,0,4.83,0,7.24,0,.28-.08.33-.34.3a22.07,22.07,0,0,0-2.29-.18,19.58,19.58,0,0,0-2.41.2,14,14,0,0,0-3.41.88c-.72.29-1.46.53-2.15.87a14.77,14.77,0,0,0-2.9,2,12.34,12.34,0,0,0-1.32,1.07,18.75,18.75,0,0,0-1.71,2,15.1,15.1,0,0,0-1.68,2.59,33.33,33.33,0,0,0-1.4,3.81,14.15,14.15,0,0,0-.54,3.78,16.68,16.68,0,0,0,1.05,6.64c.2.51.51,1,.66,1.52a5.06,5.06,0,0,0,.78,1.62c.55.79,1.16,1.55,1.76,2.32a10.47,10.47,0,0,0,.78,1,6.25,6.25,0,0,0,.87.75c.73.57,1.46,1.13,2.2,1.66A14.74,14.74,0,0,0,234,521a8.6,8.6,0,0,0,1.3.52c1,.34,2,.69,3,1a8.34,8.34,0,0,0,1.51.24,17.36,17.36,0,0,0,2,.17c.79,0,1.59-.1,2.38-.15Z" transform="translate(-128.4 -476.5)"/></g><g id="NWyjEc.tif"><path class="cls-1" d="M390,503.63c-.23,5.61-.41,11.23-.71,16.83-.14,2.55-.42,5.09-.79,7.61a4,4,0,0,1-3.64,3.39c-3.85.39-7.71.76-11.57,1-7.05.52-14.11.48-21.17.41-5.32-.06-10.65-.14-15.95-.47s-10.3-.93-15.44-1.47a4.74,4.74,0,0,1-4.27-4.72,243,243,0,0,1-.73-25.31c.13-4.59.45-9.16.74-13.74a41.63,41.63,0,0,1,.61-4.86,4.29,4.29,0,0,1,4.08-3.55c5.54-.36,11.07-.74,16.61-1,3.33-.17,6.66-.21,10-.26,3.1-.05,6.2-.13,9.3-.05,4.46.12,8.91.34,13.37.56,2.93.14,5.85.31,8.78.56,2.06.17,4.12.44,6.16.77a4.42,4.42,0,0,1,3.77,4.33c.26,4.09.49,8.19.64,12.29.1,2.56,0,5.11,0,7.67Zm-71.51,3.5c.3,5.94.64,12.48,1,19,.06,1.21.53,1.66,1.75,1.79,1.71.18,3.41.39,5.12.54,4.05.34,8.1.73,12.15,1,4.29.23,8.58.34,12.88.4s8.59.07,12.88-.06,8.66-.43,13-.71c2.24-.14,4.46-.39,6.69-.61a1.61,1.61,0,0,0,1.71-1.72c.26-2.75.61-5.5.74-8.26.27-5.44.51-10.88.58-16.32a154.09,154.09,0,0,0-.81-17.45c-.22-2.1-.52-2.45-2.64-2.64-3.57-.31-7.13-.68-10.7-.88q-8.88-.51-17.76-.81c-3.16-.1-6.33,0-9.5.05-3.56.08-7.12.17-10.67.38-4.45.27-8.9.66-13.34,1a1.58,1.58,0,0,0-1.68,1.66c-.17,1.65-.4,3.29-.49,4.94C319,494.45,318.76,500.48,318.45,507.13Z" transform="translate(-128.4 -476.5)"/><path class="cls-1" d="M381.84,504.07c-.18,4.54-.34,9.08-.54,13.62a16.78,16.78,0,0,1-.37,2.92,4,4,0,0,1-3.16,3.07,35,35,0,0,1-7.36.69c-4,.12-8,.19-11.94.25-3.5,0-7,.14-10.49,0-5.34-.16-10.67-.45-16-.71-1.33-.06-2.66-.23-4-.4a4.41,4.41,0,0,1-3.88-4c-.21-4.88-.48-9.75-.47-14.63,0-4.48.37-9,.59-13.43a5.73,5.73,0,0,1,.93-3.27,4.78,4.78,0,0,1,3.93-1.87c3.35-.17,6.69-.34,10-.42,6.16-.15,12.32-.34,18.47-.28,4.94,0,9.88.41,14.81.66,1.63.09,3.26.22,4.88.41a4.4,4.4,0,0,1,4.16,4.34c.14,2.17.2,4.35.24,6.53s0,4.31,0,6.47Zm-55.3,1.25c.15,4.68.29,9.05.44,13.43a1.52,1.52,0,0,0,1.48,1.7,37.49,37.49,0,0,0,3.8.45c5.12.24,10.25.57,15.38.61,6.83.06,13.66-.07,20.49-.2,2.78-.06,5.56-.3,8.33-.5,1.29-.09,1.75-.58,1.82-1.87.15-2.7.33-5.39.37-8.1.06-4.46,0-8.92,0-13.38q0-3.07-.23-6.15c-.07-1.08-.4-1.44-1.46-1.56-2-.23-4-.42-6-.51-5.17-.25-10.33-.58-15.5-.61-6.08,0-12.15.18-18.22.35-2.91.09-5.82.32-8.72.5a1.32,1.32,0,0,0-1.31,1.14,7.43,7.43,0,0,0-.13.93C326.9,496.24,326.71,500.93,326.54,505.32Z" transform="translate(-128.4 -476.5)"/><path class="cls-1" d="M365.85,495l-1.5,2.59a8.75,8.75,0,0,0-7.52-.47,8.25,8.25,0,0,0-4.05,3.34,8.55,8.55,0,0,0,.5,10,8.86,8.86,0,0,0,11,2.23l1.42,2.49c-3.09,2.1-9.34,2.5-13.66-1.68A11.63,11.63,0,0,1,365.85,495Z" transform="translate(-128.4 -476.5)"/><path class="cls-1" d="M337.12,510.34c.39-.68.79-1.36,1.17-2q3.24-5.76,6.44-11.51a.94.94,0,0,1,1-.57c1,0,1.95,0,3,0-.81,1.4-1.55,2.71-2.3,4q-3.7,6.45-7.41,12.91a1,1,0,0,1-1.07.63c-1.31,0-2.63,0-4,0V496.27h3v14Z" transform="translate(-128.4 -476.5)"/><path class="cls-1" d="M361.31,507.55l1.5,2.64c-2,1.4-5.34.86-7.11-1.13a5.9,5.9,0,0,1-.08-7.9c1.9-2.12,5.23-2.65,7.33-1.15l-1.53,2.63c-1.72-.55-2.87-.29-3.66.78a2.75,2.75,0,0,0,0,3.23C358.48,507.74,359.62,508,361.31,507.55Z" transform="translate(-128.4 -476.5)"/><path class="cls-1" d="M371.45,513.74h-2.92V496.26h2.92Z" transform="translate(-128.4 -476.5)"/></g><path class="cls-1" d="M452.45,514.81s-7.92,4.87-11.33,2.38c-3.09-2.25-2.83-3.13-3.28-6.71s-.75-15.5-.75-15.5l10.31-3.88v12.52s-.61,7.15,6.54,1.56c4.95-3.86,13.63-10.32,18.52-13.94A28.68,28.68,0,1,0,475.4,499Z" transform="translate(-128.4 -476.5)"/></svg>