<?xml version="1.0" standalone="no"?>
<!DOCTYPE svg PUBLIC "-//W3C//DTD SVG 20010904//EN"
 "http://www.w3.org/TR/2001/REC-SVG-20010904/DTD/svg10.dtd">
<svg version="1.0" xmlns="http://www.w3.org/2000/svg"
 width="1024.000000pt" height="1024.000000pt" viewBox="0 0 1024.000000 1024.000000"
 preserveAspectRatio="xMidYMid meet">
<metadata>
Created by potrace 1.14, written by Peter Selinger 2001-2017
</metadata>
<g transform="translate(0.000000,1024.000000) scale(0.100000,-0.100000)"
fill="#000000" stroke="none">
<path d="M1265 10230 c-96 -15 -120 -20 -198 -40 -244 -64 -457 -188 -642
-374 -150 -150 -228 -268 -328 -496 -19 -44 -64 -202 -72 -255 -4 -22 -10 -62
-15 -90 -5 -28 -8 -1708 -7 -3890 l3 -3840 21 -90 c68 -296 194 -527 397 -730
206 -206 434 -330 728 -398 l93 -21 3840 -3 c2316 -1 3862 2 3895 7 30 5 71
12 90 15 99 16 278 78 388 135 201 104 397 275 519 452 133 192 224 422 250
633 5 33 8 1786 8 3895 l0 3835 -23 110 c-62 290 -188 522 -397 730 -204 204
-427 326 -728 398 l-92 22 -3840 1 c-2112 1 -3862 -2 -3890 -6z"/>
</g>
</svg>
