<?xml version="1.0" standalone="no"?>
<!DOCTYPE svg PUBLIC "-//W3C//DTD SVG 20010904//EN"
 "http://www.w3.org/TR/2001/REC-SVG-20010904/DTD/svg10.dtd">
<svg version="1.0" xmlns="http://www.w3.org/2000/svg"
 width="700.000000pt" height="700.000000pt" viewBox="0 0 700.000000 700.000000"
 preserveAspectRatio="xMidYMid meet">
<metadata>
Created by potrace 1.14, written by Peter Selinger 2001-2017
</metadata>
<g transform="translate(0.000000,700.000000) scale(0.100000,-0.100000)"
fill="#000000" stroke="none">
<path d="M1045 6990 c-149 -20 -329 -84 -459 -163 -282 -171 -471 -430 -554
-756 l-27 -106 0 -2455 c0 -2340 1 -2459 18 -2540 105 -486 461 -842 947 -947
81 -17 202 -18 2530 -18 2287 0 2450 1 2526 17 447 97 784 401 919 828 57 184
55 68 55 2647 0 1620 -3 2396 -11 2450 -58 429 -327 785 -721 955 -50 21 -136
51 -192 66 l-101 27 -2435 1 c-1339 1 -2462 -2 -2495 -6z m2712 -3849 c517
-106 908 -497 1020 -1021 25 -118 25 -391 0 -507 -142 -658 -720 -1093 -1383
-1042 -577 45 -1047 463 -1171 1039 -14 65 -18 127 -18 265 1 160 4 191 27
286 66 262 182 464 370 645 209 201 464 318 778 358 75 9 279 -3 377 -23z"/>
<path d="M3351 2414 c-129 -34 -254 -127 -331 -246 -133 -203 -108 -494 57
-678 215 -239 590 -247 818 -16 306 310 167 832 -251 941 -73 19 -221 19 -293
-1z"/>
</g>
</svg>
