<svg width="168" height="168" viewBox="0 0 168 168" fill="none" xmlns="http://www.w3.org/2000/svg">
<rect width="168" height="168" rx="36" fill="black"/>
<path d="M83.4996 21C48.9828 21 21 48.9827 21 83.5004C21 118.02 48.9828 146 83.4996 146C118.02 146 146 118.02 146 83.5004C146 48.9849 118.02 21.003 83.4989 21.003L83.4996 21V21ZM112.162 111.143C111.042 112.979 108.639 113.562 106.803 112.435C92.1287 103.471 73.6556 101.441 51.9002 106.412C49.8037 106.889 47.714 105.576 47.2364 103.479C46.7565 101.381 48.0648 99.2915 50.1664 98.8139C73.9743 93.3723 94.396 95.7165 110.87 105.785C112.706 106.912 113.289 109.307 112.162 111.143V111.143ZM119.811 94.1231C118.401 96.4181 115.401 97.1421 113.109 95.7315C96.3096 85.4028 70.7009 82.4122 50.8299 88.4442C48.2529 89.2226 45.531 87.7702 44.7489 85.1976C43.9727 82.6204 45.4258 79.9037 47.9984 79.1201C70.6964 72.2328 98.9142 75.569 118.207 87.4247C120.498 88.8352 121.222 91.8355 119.811 94.1238V94.1231ZM120.468 76.4019C100.325 64.4372 67.0909 63.3371 47.8588 69.1743C44.7705 70.111 41.5046 68.3675 40.5687 65.2791C39.6328 62.1893 41.3747 58.9255 44.4653 57.9866C66.5423 51.2844 103.243 52.5793 126.434 66.3471C129.218 67.9958 130.129 71.5835 128.479 74.3577C126.837 77.1355 123.24 78.0513 120.471 76.4019H120.468Z" fill="#1ED760"/>
</svg>
