<svg xmlns="http://www.w3.org/2000/svg" height="1056" width="816"><path d="M187.18 250.387c-58.813-28.094-145.327 5.417-124.858 81.012 19.947 73.669 106.09 57.502 135.879 12.659-12.427 85.025-34.252 98.262-47.334 116.72h138.884c-14.072-19.74-39.624-31.695-54.608-117.886 30.016 44.768 120.253 60.288 139.912-12.316 19.338-71.421-67.834-112.095-125.801-79.763C304.839 213.488 324.8 90.9 219.523 90.9c-106.318 0-88.58 124.984-32.343 159.487z" style="color:#000;fill:#000;fill-opacity:1;fill-rule:nonzero;stroke:#000;stroke-width:1.810937;stroke-linecap:butt;stroke-linejoin:miter;stroke-miterlimit:4;stroke-dashoffset:0;stroke-opacity:1;marker:none;marker-start:none;marker-mid:none;marker-end:none;visibility:visible;display:block;overflow:visible"/><path style="fill:#000;fill-opacity:1;fill-rule:evenodd;stroke:#000;stroke-width:.8557621pt;stroke-linecap:butt;stroke-linejoin:miter;stroke-opacity:1" d="M462.295 664.328c-122.08 124.722-2.408 215.191 94.114 155.646-18.225 64.968-28.248 70.08-39.312 87.19H621.31c-13.377-17.277-27.426-22.222-41.66-86.82 98.547 56.61 202.41-42.114 93.06-156.016-71.514-62.555-99.279-119.665-105.208-127.774-5.689 6.757-39.208 66.38-105.208 127.774z"/><path d="M216.5 906.612c-.343-.618-1.818-5.088-3.278-9.933-9.254-30.706-26.433-61.799-55.2-99.912-10.809-14.319-20.982-26.999-48.49-60.437-31.851-38.718-40.975-51.12-50.188-68.228-5.44-10.103-11.078-25.474-12.934-35.263-1.854-9.783-1.884-25.767-.064-34.09 7.403-33.854 37.475-59.394 73.433-62.368 41.193-3.407 76.232 17.402 94.643 56.207l4.111 8.665 3.095-6.846c4.597-10.171 9.025-17.05 16.498-25.634 19.028-21.853 41.674-32.558 68.955-32.596 12.22-.017 19.222.998 29.635 4.293 15.574 4.928 27.298 12.605 37.739 24.713 27.21 31.553 23.988 74.54-9.532 127.187-7.82 12.281-21.928 30.452-41.33 53.232-22.344 26.231-33.26 39.563-44.438 54.265-26.791 35.24-44.81 67.26-54.72 97.243-1.513 4.574-3.097 8.836-3.52 9.471-.986 1.476-3.603 1.494-4.415.031z" style="fill:red;fill-opacity:1"/><path d="M567 90.004c-38.7 64.396-82.264 126.344-126.524 185.84 46.345 59.495 90.605 121.442 126.522 185.84 37.308-65.623 78.092-128.183 126.522-185.84-47.04-59.496-89.91-122.668-126.522-185.84z" style="fill:red;fill-opacity:1;fill-rule:evenodd;stroke:none;stroke-width:1pt;stroke-linecap:butt;stroke-linejoin:miter;stroke-opacity:1"/></svg>