<svg width="33" height="24" viewBox="0 0 33 24" fill="none" xmlns="http://www.w3.org/2000/svg">
<path d="M1.5 12.866C0.833333 12.4811 0.833333 11.5189 1.5 11.134L16.5 2.47372C17.1667 2.08882 18 2.56995 18 3.33975L18 20.6603C18 21.4301 17.1667 21.9112 16.5 21.5263L1.5 12.866Z" fill="#797979"/>
<rect x="1" y="8" width="9" height="9" rx="1" fill="#797979"/>
<path d="M20.3302 8.94211C19.8603 8.10881 20.3994 7 21.3561 7C21.756 7 22.1299 7.20873 22.3304 7.55481C24.293 10.9427 24.4447 13.0638 22.3495 16.4539C22.1373 16.7972 21.7572 17 21.3536 17C20.3726 17 19.8045 15.8818 20.2725 15.0197C21.5057 12.748 21.5035 11.0232 20.3302 8.94211Z" fill="#797979"/>
<path d="M24.158 5.95787C23.6978 5.09111 24.2924 4 25.2737 4C25.7222 4 26.1382 4.24282 26.3496 4.63845C29.1448 9.87165 29.0551 13.079 26.358 18.3204C26.1421 18.74 25.7057 19 25.2338 19C24.2437 19 23.6274 17.9229 24.0721 17.0383C26.1559 12.8933 26.2872 9.96881 24.158 5.95787Z" fill="#797979"/>
<path d="M27.286 2.05134C26.7591 1.15904 27.3809 0 28.4171 0C28.8929 0 29.3332 0.261806 29.5563 0.682041C34.1398 9.31352 34.1507 14.2548 29.5718 22.3351C29.3383 22.7472 28.8977 23 28.424 23C27.3728 23 26.7343 21.8346 27.2566 20.9224C31.3469 13.7792 31.4223 9.05554 27.286 2.05134Z" fill="#797979"/>
</svg>
